<?xml version="1.0" encoding="utf-8"?>
<!-- Generator: Adobe Illustrator 16.0.0, SVG Export Plug-In . SVG Version: 6.00 Build 0)  -->
<!DOCTYPE svg PUBLIC "-//W3C//DTD SVG 1.1//EN" "http://www.w3.org/Graphics/SVG/1.1/DTD/svg11.dtd">
<svg version="1.1" id="Layer_1" xmlns="http://www.w3.org/2000/svg" xmlns:xlink="http://www.w3.org/1999/xlink" x="0px" y="0px"
	 width="595.28px" height="595.28px" viewBox="0 0 595.28 595.28" enable-background="new 0 0 595.28 595.28" xml:space="preserve">
<path fill="#33D7E5" d="M297.79,594.444c163.838,0,296.616-132.813,296.616-296.633c0-163.838-132.777-296.616-296.616-296.616
	C133.953,1.195,1.157,133.974,1.157,297.812C1.157,461.632,133.953,594.444,297.79,594.444"/>
<path fill="#FFFFFF" d="M447.157,274.229l-79.308,1.55c2.584-33.401-25.771-54.882-48.561-56.227
	c-26.995-1.584-36.623,11.387-40.05,28.286c-4.411,21.567,2.618,38.845,33.348,62.91c30.732,24.064,52.367,68.784,48.819,101.548
	c-3.479,32.729-8.889,37.07-8.889,37.07h-91.626c0,0,16.865-16.537,17.399-38.793c0.741-33.487-9.56-46.924-36.261-72.521
	c-26.717-25.616-47.026-62.152-36.83-112.263c12.404-61.101,64.874-87.87,128.956-79.826
	C412.774,155.833,447.743,201.914,447.157,274.229"/>
<path fill="#FFFFFF" d="M196.071,451.055c26.321,0,47.697-21.326,47.697-47.716c0-26.322-21.376-47.648-47.697-47.648
	c-26.323,0-47.699,21.326-47.699,47.648C148.372,429.729,169.748,451.055,196.071,451.055"/>
</svg>
