<?xml version="1.0" encoding="utf-8"?>
<!-- Generator: Adobe Illustrator 16.0.0, SVG Export Plug-In . SVG Version: 6.00 Build 0)  -->
<!DOCTYPE svg PUBLIC "-//W3C//DTD SVG 1.1//EN" "http://www.w3.org/Graphics/SVG/1.1/DTD/svg11.dtd">
<svg version="1.1" id="Layer_1" xmlns="http://www.w3.org/2000/svg" xmlns:xlink="http://www.w3.org/1999/xlink" x="0px" y="0px"
	 width="595.281px" height="595.281px" viewBox="0 0 595.281 595.281" enable-background="new 0 0 595.281 595.281"
	 xml:space="preserve">
<path fill="#00BAA5" d="M297.79,594.445c163.838,0,296.616-132.814,296.616-296.634c0-163.838-132.777-296.616-296.616-296.616
	C133.953,1.195,1.157,133.974,1.157,297.812C1.157,461.632,133.953,594.445,297.79,594.445"/>
<path fill="#FFFFFF" d="M148.405,321.411l79.31-1.55c-2.584,33.4,25.771,54.882,48.561,56.227
	c26.996,1.584,36.624-11.387,40.051-28.286c4.411-21.566-2.618-38.845-33.348-62.91c-30.732-24.064-52.367-68.785-48.82-101.549
	c3.48-32.729,8.892-37.07,8.892-37.07h91.624c0,0-16.865,16.537-17.399,38.793c-0.741,33.488,9.56,46.926,36.261,72.521
	c26.717,25.615,47.026,62.152,36.83,112.262c-12.404,61.102-64.874,87.87-128.956,79.826
	C182.788,439.807,147.819,393.726,148.405,321.411"/>
<path fill="#FFFFFF" d="M399.492,144.586c-26.32,0-47.697,21.324-47.697,47.715c0,26.321,21.376,47.647,47.697,47.647
	c26.323,0,47.699-21.326,47.699-47.647C447.191,165.91,425.815,144.586,399.492,144.586"/>
</svg>
