<?xml version="1.0" encoding="utf-8"?>
<!-- Generator: Adobe Illustrator 16.0.0, SVG Export Plug-In . SVG Version: 6.00 Build 0)  -->
<!DOCTYPE svg PUBLIC "-//W3C//DTD SVG 1.1//EN" "http://www.w3.org/Graphics/SVG/1.1/DTD/svg11.dtd">
<svg version="1.1" id="Layer_1" xmlns="http://www.w3.org/2000/svg" xmlns:xlink="http://www.w3.org/1999/xlink" x="0px" y="0px"
	 width="595.28px" height="595.28px" viewBox="0 0 595.28 595.28" enable-background="new 0 0 595.28 595.28" xml:space="preserve">
<path fill="#BEC4C2" d="M570.732,122.134H23.676C11.15,122.134,1,111.982,1,99.458c0-12.525,10.15-22.676,22.676-22.676h547.057
	c12.523,0,22.688,10.15,22.688,22.676C593.42,111.982,583.256,122.134,570.732,122.134z"/>
<path fill="#BEC4C2" d="M570.732,320.123H23.676C11.15,320.123,1,309.961,1,297.436s10.15-22.676,22.676-22.676h547.057
	c12.523,0,22.688,10.15,22.688,22.676S583.256,320.123,570.732,320.123z"/>
<path fill="#BEC4C2" d="M570.732,518.113H23.676C11.15,518.113,1,507.949,1,495.425s10.15-22.688,22.676-22.688h547.057
	c12.523,0,22.688,10.163,22.688,22.688S583.256,518.113,570.732,518.113z"/>
</svg>
