<?xml version="1.0" encoding="utf-8"?>
<!-- Generator: Adobe Illustrator 16.0.0, SVG Export Plug-In . SVG Version: 6.00 Build 0)  -->
<!DOCTYPE svg PUBLIC "-//W3C//DTD SVG 1.1//EN" "http://www.w3.org/Graphics/SVG/1.1/DTD/svg11.dtd">
<svg version="1.1" id="Layer_1" xmlns="http://www.w3.org/2000/svg" xmlns:xlink="http://www.w3.org/1999/xlink" x="0px" y="0px"
	 width="595.28px" height="595.28px" viewBox="0 0 595.28 595.28" enable-background="new 0 0 595.28 595.28" xml:space="preserve">
<path fill="#D2D6D5" d="M181.938,573.22c-46.875,0-94.133-15.563-133.401-52.52C14.671,488.785-2.228,441.023,3.307,392.91
	c5.688-49.45,33.954-91.294,79.578-117.816c10.729-6.236,24.451-2.576,30.687,8.132c6.225,10.718,2.587,24.452-8.132,30.686
	c-33.076,19.225-53.505,49.101-57.539,84.128c-3.868,33.602,8.165,68.08,31.411,89.956c65.035,61.286,159.715,45.965,219.632-0.833
	c41.516-32.396,74.613-87.173,42.983-143.703c-66.568-118.979-69.297-192.89-10.061-272.709
	c26.457-35.64,74.175-60.354,121.608-62.984c35.114-1.775,65.319,8.614,84.959,29.711c23.477,25.251,26.041,49.91,24.024,66.142
	c-5.48,44.847-49.516,74.701-54.536,77.956c-10.346,6.773-24.286,3.803-31.037-6.564c-6.752-10.369-3.836-24.243,6.51-31.016
	c8.789-5.82,32.068-25.372,34.522-45.954c1.184-9.951-2.849-19.76-12.362-29.986c-10.39-11.167-28.013-16.658-49.604-15.463
	c-34.128,1.885-69.506,19.936-88.05,44.913c-42.392,57.154-52.014,107.492,13.195,224.037c37.482,66.985,16.089,145.896-54.535,201
	C286.854,553.535,234.643,573.22,181.938,573.22z"/>
<path fill="#434947" d="M525.098,193.217c30.993,0,56.113-25.107,56.113-56.102c0-30.993-25.12-56.113-56.113-56.113
	c-30.994,0-56.113,25.12-56.113,56.113C468.984,168.11,494.104,193.217,525.098,193.217"/>
<path fill="#434947" d="M334.391,329.727c30.993,0,56.113-25.107,56.113-56.102c0-30.993-25.12-56.113-56.113-56.113
	c-30.994,0-56.114,25.12-56.114,56.113C278.277,304.619,303.396,329.727,334.391,329.727"/>
<path fill="#434947" d="M82.084,344.205c30.994,0,56.114-25.107,56.114-56.103c0-30.993-25.12-56.113-56.114-56.113
	c-30.994,0-56.113,25.12-56.113,56.113C25.971,319.098,51.091,344.205,82.084,344.205"/>
<path fill="#D2D6D5" d="M82.084,355.428c-37.131,0-67.336-30.193-67.336-67.325c0-37.131,30.205-67.335,67.336-67.335
	c37.132,0,67.336,30.205,67.336,67.335C149.421,325.234,119.216,355.428,82.084,355.428z M82.084,243.212
	c-24.758,0-44.891,20.133-44.891,44.89c0,24.759,20.133,44.88,44.891,44.88c24.758,0,44.891-20.121,44.891-44.88
	C126.976,263.345,106.843,243.212,82.084,243.212z"/>
<path fill="#434947" d="M92.069,573.327c30.994,0,56.113-25.118,56.113-56.112s-25.119-56.113-56.113-56.113
	c-30.995,0-56.114,25.119-56.114,56.113S61.075,573.327,92.069,573.327"/>
<path fill="#D2D6D5" d="M92.069,584.551c-37.132,0-67.336-30.204-67.336-67.336s30.205-67.336,67.336-67.336
	c37.131,0,67.335,30.204,67.335,67.336S129.2,584.551,92.069,584.551z M92.069,472.324c-24.758,0-44.891,20.144-44.891,44.891
	s20.133,44.891,44.891,44.891c24.757,0,44.89-20.144,44.89-44.891S116.827,472.324,92.069,472.324z"/>
<path fill="#D2D6D5" d="M335.241,338.988c-37.142,0-67.346-30.216-67.346-67.347c0-37.131,30.205-67.336,67.346-67.336
	c37.132,0,67.337,30.205,67.337,67.336C402.578,308.772,372.373,338.988,335.241,338.988z M335.241,226.751
	c-24.769,0-44.901,20.133-44.901,44.891c0,24.758,20.133,44.891,44.901,44.891c24.747,0,44.892-20.132,44.892-44.891
	C380.133,246.884,359.988,226.751,335.241,226.751z"/>
<path fill="#D2D6D5" d="M523.704,204.305c-37.131,0-67.337-30.205-67.337-67.335c0-37.132,30.206-67.337,67.337-67.337
	s67.335,30.205,67.335,67.337C591.039,174.101,560.835,204.305,523.704,204.305z M523.704,92.078
	c-24.769,0-44.891,20.133-44.891,44.892c0,24.757,20.122,44.89,44.891,44.89c24.747,0,44.891-20.133,44.891-44.89
	C568.595,112.211,548.451,92.078,523.704,92.078z"/>
</svg>
