<?xml version="1.0" encoding="utf-8"?>
<!-- Generator: Adobe Illustrator 16.0.0, SVG Export Plug-In . SVG Version: 6.00 Build 0)  -->
<!DOCTYPE svg PUBLIC "-//W3C//DTD SVG 1.1//EN" "http://www.w3.org/Graphics/SVG/1.1/DTD/svg11.dtd">
<svg version="1.1" id="Layer_1" xmlns="http://www.w3.org/2000/svg" xmlns:xlink="http://www.w3.org/1999/xlink" x="0px" y="0px"
	 width="595.28px" height="595.28px" viewBox="0 0 595.28 595.28" enable-background="new 0 0 595.28 595.28" xml:space="preserve">
<path fill="#BEC4C2" d="M297.746,591.15c-162.091,0-293.958-131.865-293.958-293.968C3.789,135.09,135.655,3.225,297.746,3.225
	c162.08,0,293.968,131.865,293.968,293.958C591.714,459.285,459.826,591.15,297.746,591.15z M297.746,44.201
	c-139.492,0-252.981,113.49-252.981,252.981c0,139.514,113.49,252.992,252.981,252.992c139.491,0,252.992-113.479,252.992-252.992
	C550.738,157.691,437.237,44.201,297.746,44.201z"/>
<path fill="#BEC4C2" d="M297.746,126.042c-11.317,0-20.488-9.171-20.488-20.488V28.493c0-11.316,9.171-20.487,20.488-20.487
	c11.316,0,20.487,9.171,20.487,20.487v77.061C318.233,116.87,309.063,126.042,297.746,126.042z"/>
<path fill="#BEC4C2" d="M297.746,582.88c-11.317,0-20.488-9.182-20.488-20.477v-77.061c0-11.339,9.171-20.5,20.488-20.5
	c11.316,0,20.487,9.161,20.487,20.5v77.061C318.233,573.698,309.063,582.88,297.746,582.88z"/>
<path fill="#BEC4C2" d="M117.456,325.529H40.385c-11.317,0-20.488-9.171-20.488-20.487c0-11.317,9.171-20.488,20.488-20.488h77.071
	c11.317,0,20.488,9.171,20.488,20.488C137.944,316.358,128.773,325.529,117.456,325.529z"/>
<path fill="#BEC4C2" d="M555.096,325.529h-77.061c-11.316,0-20.477-9.171-20.477-20.487c0-11.317,9.16-20.488,20.477-20.488h77.061
	c11.316,0,20.477,9.171,20.477,20.488C575.572,316.358,566.412,325.529,555.096,325.529z"/>
<path fill="#00BAA5" d="M297.746,383.536c43.354,0,78.505-35.128,78.505-78.505c0-43.345-35.15-78.473-78.505-78.473
	c-43.344,0-78.495,35.128-78.495,78.473C219.251,348.408,254.402,383.536,297.746,383.536"/>
<path fill="#BEC4C2" d="M297.746,404.014c-54.583,0-98.982-44.4-98.982-98.982c0-54.572,44.399-98.961,98.982-98.961
	s98.982,44.39,98.982,98.961C396.729,359.613,352.329,404.014,297.746,404.014z M297.746,247.047
	c-31.983,0-58.007,26.012-58.007,57.984c0,31.993,26.023,58.027,58.007,58.027c31.993,0,58.028-26.034,58.028-58.027
	C355.774,273.059,329.739,247.047,297.746,247.047z"/>
</svg>
